<mxfile host="app.diagrams.net" agent="Mozilla/5.0 (Windows NT 10.0; Win64; x64) AppleWebKit/537.36 (KHTML, like Gecko) Chrome/127.0.0.0 Safari/537.36" version="24.7.6">
  <diagram name="ç¬¬ 1 é¡µ" id="W15Nwib6zluiax4cCyTa">
    <mxGraphModel dx="1185" dy="651" grid="1" gridSize="10" guides="1" tooltips="1" connect="1" arrows="1" fold="1" page="1" pageScale="1" pageWidth="827" pageHeight="1169" math="0" shadow="0">
      <root>
        <mxCell id="0" />
        <mxCell id="1" parent="0" />
        <mxCell id="Ne2PHnnnSHolrumR_Dge-1" value="" style="rounded=1;whiteSpace=wrap;html=1;" vertex="1" parent="1">
          <mxGeometry x="140" y="540" width="620" height="330" as="geometry" />
        </mxCell>
        <mxCell id="Ne2PHnnnSHolrumR_Dge-2" value="No need for human-effort" style="text;html=1;align=center;verticalAlign=middle;whiteSpace=wrap;rounded=0;" vertex="1" parent="1">
          <mxGeometry x="190" y="585" width="80" height="30" as="geometry" />
        </mxCell>
        <mxCell id="Ne2PHnnnSHolrumR_Dge-3" value="Precise and relevent" style="text;html=1;align=center;verticalAlign=middle;whiteSpace=wrap;rounded=0;" vertex="1" parent="1">
          <mxGeometry x="190" y="630" width="80" height="30" as="geometry" />
        </mxCell>
        <mxCell id="Ne2PHnnnSHolrumR_Dge-5" value="&lt;span style=&quot;color: rgb(0, 0, 0); font-family: Helvetica; font-size: 12px; font-style: normal; font-variant-ligatures: normal; font-variant-caps: normal; font-weight: 400; letter-spacing: normal; orphans: 2; text-align: center; text-indent: 0px; text-transform: none; widows: 2; word-spacing: 0px; -webkit-text-stroke-width: 0px; white-space: normal; background-color: rgb(251, 251, 251); text-decoration-thickness: initial; text-decoration-style: initial; text-decoration-color: initial; display: inline !important; float: none;&quot;&gt;í ¼í¾¯&lt;/span&gt;" style="text;whiteSpace=wrap;html=1;" vertex="1" parent="1">
          <mxGeometry x="450" y="370" width="20" height="20" as="geometry" />
        </mxCell>
        <mxCell id="Ne2PHnnnSHolrumR_Dge-8" value="" style="shape=image;verticalLabelPosition=bottom;labelBackgroundColor=default;verticalAlign=top;aspect=fixed;imageAspect=0;image=https://images.emojiterra.com/google/noto-emoji/unicode-15/color/512px/1f3af.png;" vertex="1" parent="1">
          <mxGeometry x="590" y="620" width="90" height="90" as="geometry" />
        </mxCell>
        <mxCell id="Ne2PHnnnSHolrumR_Dge-9" value="large human annotated pool" style="text;html=1;align=center;verticalAlign=middle;whiteSpace=wrap;rounded=0;" vertex="1" parent="1">
          <mxGeometry x="190" y="760" width="100" height="30" as="geometry" />
        </mxCell>
        <mxCell id="Ne2PHnnnSHolrumR_Dge-10" value="limit in coverage" style="text;html=1;align=center;verticalAlign=middle;whiteSpace=wrap;rounded=0;" vertex="1" parent="1">
          <mxGeometry x="190" y="800" width="100" height="30" as="geometry" />
        </mxCell>
        <mxCell id="Ne2PHnnnSHolrumR_Dge-12" value="Cheap and data-efficient" style="text;html=1;align=center;verticalAlign=middle;whiteSpace=wrap;rounded=0;" vertex="1" parent="1">
          <mxGeometry x="190" y="680" width="80" height="30" as="geometry" />
        </mxCell>
        <mxCell id="Ne2PHnnnSHolrumR_Dge-13" value="un-relevent" style="text;html=1;align=center;verticalAlign=middle;whiteSpace=wrap;rounded=0;" vertex="1" parent="1">
          <mxGeometry x="190" y="840" width="100" height="30" as="geometry" />
        </mxCell>
      </root>
    </mxGraphModel>
  </diagram>
</mxfile>
